# xmcd
#
# Track frame offsets:
#	150
#	24055
#	45450
#	66190
#	88635
#	106820
#	133990
#	152565
#	185387
#	203935
#	221317
#	261642
#
# Disc length: 3764 seconds
#
# Revision: 3
# Processed by: cddbd v1.5.2PL0 Copyright (c) Steve Scherf et al.
# Submitted via: EZCDAudioConverter 2.8.0.1
#
DISCID=a20eb20c
DTITLE=B.B. King - Blues Summit
DYEAR=1993
DGENRE=Blues
TTITLE0=B.B. King duet w/ Robert Cray - Playin' With My Friends
TTITLE1=B.B. King duet w/ Katie Webster - Since I Met You Baby
TTITLE2=B.B. King duet w/ Buddy Guy - I Pity The Fool
TTITLE3=B.B. King duet w/ John Lee Hooker - You Shook Me
TTITLE4=B.B. King duet w/ Koko Taylor - Something You Got
TTITLE5=B.B. King duet w/ Etta James - There's Something On Your Mind
TTITLE6=B.B. King duet w/ Lowell Fulson - Little By Little
TTITLE7=B.B. King duet w/ Albert Collins - Call It Stormy Monday
TTITLE8=B.B. King duet w/ Ruth Brown - You're The Boss
TTITLE9=B.B. King duet w/ Irma Thomas - We're Gonna Make It
TTITLE10=B.B. King w/ Orchestra - I Gotta Move Out Of This Neighborhood - Nobo
TTITLE10=dy Loves My But My Mother
TTITLE11=B.B. King duet w/ Joe Louis Walker - Everybody's Had The Blues
EXTD=
EXTT0=
EXTT1=
EXTT2=
EXTT3=
EXTT4=
EXTT5=
EXTT6=
EXTT7=
EXTT8=
EXTT9=
EXTT10=
EXTT11=
PLAYORDER=
